<svg width="20" height="20" viewBox="0 0 20 20" fill="none" xmlns="http://www.w3.org/2000/svg">
<g id="heroicons:fire-16-solid">
<path id="Vector" fill-rule="evenodd" clip-rule="evenodd" d="M10.0926 1.18091C9.28994 1.76014 8.63636 2.52172 8.18565 3.40295C7.73493 4.28418 7.49995 5.25986 7.50006 6.24966V6.28966C7.50506 7.03966 7.64256 7.75966 7.88881 8.42591C8.08881 8.96091 7.63381 9.56341 7.12631 9.30091C6.18238 8.8121 5.37871 8.09061 4.79131 7.20466C4.53881 6.82466 3.98131 6.75091 3.73131 7.13216C2.90692 8.38726 2.47827 9.86092 2.50085 11.3624C2.52342 12.8638 2.99618 14.3239 3.85792 15.5537C4.71966 16.7834 5.93071 17.7262 7.33428 18.2599C8.73785 18.7936 10.2693 18.8937 11.7304 18.5473C13.1915 18.2008 14.515 17.4237 15.5295 16.3166C16.544 15.2095 17.2028 13.8234 17.4207 12.3377C17.6385 10.8519 17.4053 9.335 16.7514 7.98327C16.0974 6.63154 15.0527 5.50723 13.7526 4.75591L13.7476 4.74716C12.4926 4.0243 11.529 2.88649 11.0226 1.52966C10.8776 1.14216 10.4263 0.94091 10.0926 1.18091ZM11.0676 8.90216C11.6571 9.07699 12.1946 9.39408 12.6328 9.82549C13.071 10.2569 13.3964 10.7894 13.5804 11.3762C13.7644 11.9629 13.8013 12.5859 13.6879 13.1903C13.5745 13.7947 13.3143 14.3619 12.9302 14.8421C12.546 15.3222 12.0497 15.7006 11.485 15.9438C10.9202 16.1871 10.3043 16.2878 9.69148 16.2371C9.07865 16.1863 8.4877 15.9857 7.97064 15.6529C7.45357 15.32 7.02626 14.8652 6.72631 14.3284C6.47006 13.8722 6.99506 13.4609 7.50131 13.5909C8.26776 13.7885 9.07017 13.8014 9.84256 13.6284C10.2026 13.5472 10.3588 13.1459 10.2438 12.7959C10.0818 12.2961 9.99949 11.7738 10.0001 11.2484C10.0001 10.5172 10.1576 9.82341 10.4388 9.19716C10.4899 9.08008 10.582 8.98566 10.6977 8.93158C10.8135 8.87751 10.945 8.86624 11.0676 8.90216Z" fill="#EB2A2A"/>
</g>
</svg>
