<svg width="24" height="24" viewBox="0 0 24 24" fill="none" xmlns="http://www.w3.org/2000/svg">
<g id="ic: Search">
<path id="Vector" d="M15.0961 5.90407C14.4946 5.29138 13.7776 4.80394 12.9866 4.4699C12.1956 4.13586 11.3463 3.96185 10.4877 3.9579C9.62911 3.95396 8.77823 4.12016 7.98421 4.44692C7.1902 4.77367 6.46879 5.2545 5.86166 5.86164C5.25452 6.46877 4.77369 7.19018 4.44694 7.98419C4.12018 8.77821 3.95398 9.62909 3.95792 10.4877C3.96187 11.3463 4.13588 12.1956 4.46992 12.9866C4.80396 13.7776 5.2914 14.4945 5.90409 15.0961C7.12684 16.2966 8.77418 16.9656 10.4877 16.9578C12.2013 16.9499 13.8424 16.2657 15.054 15.054C16.2657 13.8424 16.9499 12.2012 16.9578 10.4877C16.9657 8.77416 16.2966 7.12682 15.0961 5.90407ZM4.49009 4.49007C6.02291 2.95763 8.08324 2.06864 10.2498 2.0049C12.4163 1.94116 14.5253 2.70747 16.1456 4.14714C17.7659 5.58681 18.7749 7.59106 18.9665 9.75005C19.158 11.909 18.5176 14.0596 17.1761 15.7621L22.5211 21.1071L21.1071 22.5211L15.7621 17.1761C14.0591 18.5126 11.9103 19.1491 9.75415 18.9557C7.59796 18.7622 5.5968 17.7535 4.15887 16.1352C2.72094 14.5169 1.95459 12.4109 2.01614 10.247C2.07769 8.083 2.9625 6.02403 4.49009 4.49007Z" fill="#5C5E61"/>
</g>
</svg>
